<?xml version="1.0" encoding="UTF-8" standalone="no"?> <svg width="64" height="64" viewBox="0 0 64 64" fill="none" xmlns="http://www.w3.org/2000/svg">
<path d="M38 42V33.071L32 27.071L26 33.071V42H29V37C29 36.7348 29.1054 36.4804 29.2929 36.2929C29.4804 36.1054 29.7348 36 30 36H34C34.2652 36 34.5196 36.1054 34.7071 36.2929C34.8946 36.4804 35 36.7348 35 37V42H38ZM32 34C31.6044 34 31.2178 33.8827 30.8889 33.6629C30.56 33.4432 30.3036 33.1308 30.1522 32.7654C30.0009 32.3999 29.9613 31.9978 30.0384 31.6098C30.1156 31.2219 30.3061 30.8655 30.5858 30.5858C30.8655 30.3061 31.2219 30.1156 31.6098 30.0384C31.9978 29.9613 32.3999 30.0009 32.7654 30.1522C33.1308 30.3036 33.4432 30.56 33.6629 30.8889C33.8827 31.2178 34 31.6044 34 32C34 32.5304 33.7893 33.0391 33.4142 33.4142C33.0391 33.7893 32.5304 34 32 34Z" fill="black"/>
<path d="M33 38H31V42H33V38Z" fill="black"/>
<path d="M43.313 32.728L32 21.414L20.687 32.728L22.1 34.143L31.292 24.95C31.4795 24.7625 31.7338 24.6572 31.999 24.6572C32.2642 24.6572 32.5185 24.7625 32.706 24.95L41.9 34.143L43.313 32.728Z" fill="black"/>
<path d="M61 3V13.31L49.94 17.33C47.134 18.3477 44.1104 18.6132 41.17 18.1L30.17 16.16C29.9107 16.114 29.6632 16.0169 29.4417 15.8744C29.2203 15.7319 29.0293 15.5469 28.88 15.33C28.7267 15.1169 28.6177 14.8753 28.5593 14.6194C28.5009 14.3635 28.4944 14.0985 28.54 13.84C28.586 13.5807 28.6831 13.3332 28.8256 13.1117C28.9681 12.8903 29.1531 12.6993 29.37 12.55C29.5837 12.3982 29.8257 12.2908 30.0816 12.2341C30.3375 12.1774 30.6022 12.1726 30.86 12.22L41.69 14.13L42.04 12.16L31.21 10.25C30.6928 10.1539 30.1616 10.1628 29.6479 10.2762C29.1343 10.3895 28.6487 10.6051 28.22 10.91C27.4941 11.4239 26.9622 12.1671 26.71 13.02L17.03 16.54C16.5399 16.7312 15.9965 16.7349 15.5039 16.5504C15.0112 16.3658 14.6039 16.0061 14.36 15.54C14.2421 15.2768 14.1828 14.9912 14.1862 14.7028C14.1897 14.4144 14.2558 14.1303 14.38 13.87C14.4885 13.6323 14.6435 13.4187 14.8359 13.2418C15.0282 13.0649 15.254 12.9283 15.5 12.84L33.78 6.18C35.224 5.64816 36.7656 5.4333 38.3 5.55L43.05 5.88C44.8636 6.0047 46.6832 5.74574 48.39 5.12L54.21 3H61Z" fill="black"/>
<path d="M49.99 50.13C49.8815 50.3677 49.7265 50.5814 49.5341 50.7583C49.3418 50.9352 49.116 51.0718 48.87 51.16L30.58 57.82C29.1363 58.3532 27.5945 58.5681 26.06 58.45L21.32 58.12C19.5031 57.996 17.6805 58.2549 15.97 58.88L10.14 61H3V50.83L14.43 46.67C17.2327 45.6529 20.2529 45.3875 23.19 45.9L34.2 47.84C34.7224 47.9342 35.1866 48.2307 35.4918 48.665C35.7969 49.0994 35.9185 49.6366 35.83 50.16C35.784 50.4193 35.6869 50.6668 35.5444 50.8883C35.4019 51.1097 35.2169 51.3007 35 51.45C34.7874 51.604 34.5455 51.7127 34.2892 51.7695C34.0329 51.8263 33.7677 51.8298 33.51 51.78L22.67 49.87L22.33 51.84L33.16 53.75C34.1197 53.9253 35.1104 53.7394 35.9412 53.228C36.772 52.7166 37.3843 51.9158 37.66 50.98L47.34 47.46C47.8286 47.2689 48.3707 47.2653 48.8617 47.45C49.3528 47.6346 49.7583 47.9944 50 48.46C50.1195 48.7225 50.1805 49.0077 50.1788 49.2961C50.177 49.5845 50.1126 49.869 49.99 50.13V50.13Z" fill="black"/>
</svg>
